<?xml version="1.0" encoding="UTF-8"?>
<svg width="80px" height="80px" viewBox="0 0 80 80" version="1.1" xmlns="http://www.w3.org/2000/svg" xmlns:xlink="http://www.w3.org/1999/xlink">
    <!-- Generator: Sketch 52.6 (67491) - http://www.bohemiancoding.com/sketch -->
    <title>41_Nonepage/theme1/theme1-nonepage-02</title>
    <desc>Created with Sketch.</desc>
    <g id="课程中心、系统设置、小工具" stroke="none" stroke-width="1" fill="none" fill-rule="evenodd">
        <g id="初审退款单-退款信息单条无" transform="translate(-470.000000, -388.000000)">
            <g id="分组-5" transform="translate(470.000000, 388.000000)">
                <g id="41_Nonepage/theme1/theme1-nonepage-02">
                    <circle id="Oval" fill="#F5F8FC" fill-rule="evenodd" cx="40" cy="40" r="40"></circle>
                    <path d="M23.9612497,27 C23.657466,27 23.3701531,27.1380897 23.1803809,27.375305 L16.2191312,36.0768671 C16.0772808,36.2541801 16,36.4744906 16,36.7015621 L16,53 C16,53.5522847 16.4477153,54 17,54 L63,54 C63.5522847,54 64,53.5522847 64,53 L64,36.7015621 C64,36.4744906 63.9227192,36.2541801 63.7808688,36.0768671 L56.8196191,27.375305 C56.6298469,27.1380897 56.342534,27 56.0387503,27 L23.9612497,27 Z M23.9612497,25 L56.0387503,25 C56.9501015,25 57.8120402,25.4142692 58.3813567,26.1259149 L65.3426064,34.827477 C65.7681577,35.3594161 66,36.0203476 66,36.7015621 L66,53 C66,54.6568542 64.6568542,56 63,56 L17,56 C15.3431458,56 14,54.6568542 14,53 L14,36.7015621 C14,36.0203476 14.2318423,35.3594161 14.6573936,34.827477 L21.6186433,26.1259149 C22.1879598,25.4142692 23.0498985,25 23.9612497,25 Z" id="Path-4" fill="#CFD7E6" fill-rule="nonzero"></path>
                    <path d="M23.9612497,27 C23.657466,27 23.3701531,27.1380897 23.1803809,27.375305 L16.2191312,36.0768671 C16.0772808,36.2541801 16,36.4744906 16,36.7015621 L16,53 C16,53.5522847 16.4477153,54 17,54 L63,54 C63.5522847,54 64,53.5522847 64,53 L64,36.7015621 C64,36.4744906 63.9227192,36.2541801 63.7808688,36.0768671 L56.8196191,27.375305 C56.6298469,27.1380897 56.342534,27 56.0387503,27 L23.9612497,27 Z" id="Path" fill="#FFFFFF" fill-rule="nonzero"></path>
                    <rect id="Rectangle-Copy-3" fill="#E6EBF5" fill-rule="evenodd" opacity="0.400000006" x="14" y="56" width="52" height="4" rx="2"></rect>
                    <path d="M66,52.9903803 C66,54.65109 64.6647114,56 63.0090859,56 L16.9909141,56 C15.3374514,56 14,54.6597316 14,53.0025781 L14,37.9974219 C14,36.3420894 15.3402394,35 16.9950893,35 L31.0049107,35 C32.4854767,35 34.126673,36.017278 34.7899232,37.3437785 L35.4989311,38.7617943 C35.8239652,39.4118624 36.7743122,40 37.4973917,40 L42.5026083,40 C43.2260268,40 44.1762131,39.4115058 44.5010689,38.7617943 L45.2100768,37.3437785 C45.8739257,36.0160806 47.513598,35 48.9950893,35 L63.0049107,35 C64.6608178,35 66,36.3473316 66,38.0080394 L66,52.9903803 Z M64,52.9903803 L64,38.0080394 C64,37.449194 63.553523,37 63.0049107,37 L48.9950893,37 C48.2720683,37 47.3244087,37.5872506 46.9989311,38.2382057 L46.2899232,39.6562215 C45.6266115,40.9828449 43.9843068,42 42.5026083,42 L37.4973917,42 C36.0163016,42 34.3736866,40.9834412 33.7100768,39.6562215 L33.0010689,38.2382057 C32.6761516,37.5883713 31.7269198,37 31.0049107,37 L16.9950893,37 C16.4454269,37 16,37.4460418 16,37.9974219 L16,53.0025781 C16,53.556103 16.442964,54 16.9909141,54 L63.0090859,54 C63.5555725,54 64,53.5510389 64,52.9903803 Z" id="Combined-Shape" fill="#CFD7E6" fill-rule="nonzero"></path>
                    <path d="M22,26 L24,26 L24,36 L22,36 L22,26 Z M56,26 L58,26 L58,36 L56,36 L56,26 Z" id="Combined-Shape" fill="#CFD7E6" fill-rule="evenodd"></path>
                </g>
            </g>
        </g>
    </g>
</svg>